PathFileType	4	(X/Y/Z)	OpenSim_Sub06_EMGBaseline_Magnet.trc
DataRate	CameraRate	NumFrames	NumMarkers	Units	OrigDataRate	OrigDataStartFrame	OrigNumFrames
100	100	37	8	m	100	1	8270
Frame#	Time	torso_imu_offset_imu	pelvis_imu_offset_imu	tibia_r_imu_offset_imu	femur_r_imu_offset_imu	tibia_l_imu_offset_imu	femur_l_imu_offset_imu	toes_r_imu_offset_imu	toes_l_imu_offset_imu
				X1	Y1	Z1	X2	Y2	Z2	X3	Y3	Z3	X4	Y4	Z4	X5	Y5	Z5	X6	Y6	Z6	X7	Y7	Z7	X8		Y8	Z8	

1	0	-0.94249673	-0.16707121	0.00949980	-0.54449261	0.22110797	-0.71789313	-0.58876995	-0.52398430	-0.26626724	-0.74670820	-0.37602264	0.10051472	-0.68832974	0.43009745	0.14092687	-0.63991170	0.34030010	0.40691432	-0.54435893	-0.21803738	-0.53757088	-0.68597502	-0.12067250	-0.45572404
2	0.01000000	-0.93981122	-0.16683423	0.00742410	-0.55226440	0.21406466	-0.72192873	-0.58591238	-0.52984274	-0.26511223	-0.74744102	-0.37367572	0.10086166	-0.68710460	0.43209978	0.14242969	-0.64131931	0.33680498	0.41088696	-0.54406787	-0.21457537	-0.54120854	-0.68836008	-0.12216666	-0.44785649
3	0.02000000	-0.93838525	-0.16462650	0.00731152	-0.54576958	0.22291273	-0.71544645	-0.58255511	-0.52116937	-0.26170712	-0.75128017	-0.37192152	0.10264793	-0.69273735	0.43120522	0.14080751	-0.63893112	0.34266169	0.40387581	-0.54418175	-0.22092331	-0.53516759	-0.69065351	-0.11598435	-0.44243347
4	0.03000000	-0.94298094	-0.16535956	0.00745195	-0.54596219	0.22415640	-0.72071006	-0.58735000	-0.52190643	-0.26868970	-0.74881928	-0.37411342	0.10072785	-0.68383925	0.42564396	0.14275078	-0.63464494	0.33613270	0.40437525	-0.54596779	-0.22003167	-0.53919315	-0.68786883	-0.11838543	-0.44930529
5	0.04000000	-0.94646996	-0.16950480	0.00714432	-0.54432732	0.22213245	-0.72286313	-0.59054415	-0.52417664	-0.27003955	-0.74918306	-0.37416313	0.10279532	-0.68914332	0.43445210	0.13832722	-0.63478806	0.33890809	0.40440740	-0.54169021	-0.21651881	-0.53536956	-0.68905220	-0.12095646	-0.44921631
6	0.05000000	-0.94179628	-0.17165080	0.00337029	-0.55075285	0.22192122	-0.72198687	-0.58361351	-0.52756036	-0.26496901	-0.74858039	-0.37596503	0.09831634	-0.68853165	0.43171705	0.14275794	-0.63317236	0.33836912	0.40669698	-0.54225361	-0.21865214	-0.54171865	-0.69697984	-0.12450470	-0.45351249
7	0.06000000	-0.93783170	-0.17320303	0.00777638	-0.54816229	0.22027746	-0.71572781	-0.58291501	-0.52144574	-0.26171163	-0.74252859	-0.37381913	0.10056986	-0.68905850	0.43451112	0.13803487	-0.63942505	0.33643803	0.40908931	-0.54676207	-0.21848488	-0.53923675	-0.69032065	-0.11564954	-0.45082469
8	0.07000000	-0.93800886	-0.17123792	0.00285605	-0.55116139	0.22422739	-0.71987274	-0.58627532	-0.52407556	-0.26881267	-0.74327823	-0.37399910	0.09840343	-0.69079734	0.43604233	0.14050311	-0.63686397	0.33895621	0.41365075	-0.54743715	-0.21844432	-0.54169339	-0.69332833	-0.11852364	-0.44890474
9	0.08000000	-0.93806086	-0.17322032	0.00354609	-0.55431873	0.21996892	-0.71329423	-0.58218190	-0.52583571	-0.26661541	-0.74706590	-0.37595334	0.10099344	-0.68679090	0.43188270	0.13771725	-0.63486721	0.34078895	0.41290122	-0.53799466	-0.21877603	-0.53848835	-0.69490362	-0.11600656	-0.44900798
10	0.09000000	-0.93767350	-0.17140375	0.00003951	-0.54823985	0.22476335	-0.72031949	-0.58459015	-0.52333443	-0.25530650	-0.74689073	-0.37385228	0.10049930	-0.69363489	0.43482640	0.13642091	-0.63533297	0.33828657	0.40856623	-0.54630686	-0.22040079	-0.53370096	-0.69002371	-0.11599372	-0.44891555
11	0.10000000	-0.93626238	-0.17253140	-0.00740431	-0.55322477	0.22656024	-0.71572212	-0.58209738	-0.52193074	-0.27084782	-0.74761942	-0.37420000	0.10070568	-0.69092028	0.44062974	0.14254563	-0.63937017	0.33648896	0.41160687	-0.53947810	-0.21640613	-0.54399097	-0.68609258	-0.11600064	-0.45210646
12	0.11000000	-0.94270038	-0.16297820	-0.00150251	-0.55205524	0.22839473	-0.71783030	-0.58064905	-0.52625349	-0.26338630	-0.75315379	-0.37347937	0.10343760	-0.68833315	0.43605894	0.14017903	-0.63652083	0.33883502	0.41293705	-0.54014271	-0.22054118	-0.54100427	-0.69103875	-0.11872799	-0.46007797
13	0.12000000	-0.94047716	-0.17420439	-0.00825329	-0.54620982	0.22383975	-0.71330395	-0.58402513	-0.52789753	-0.27040985	-0.74917438	-0.36759587	0.10451344	-0.68206295	0.43925983	0.14012370	-0.63046025	0.34122717	0.40886738	-0.54181435	-0.21856836	-0.53692629	-0.69496174	-0.12262574	-0.45314840
14	0.13000000	-0.94378913	-0.17550880	-0.00740534	-0.55060161	0.22254887	-0.71552515	-0.58026810	-0.52772269	-0.26541669	-0.75119554	-0.37233548	0.09821668	-0.68441193	0.44328251	0.14000421	-0.63305330	0.34248704	0.41327721	-0.54003680	-0.22315829	-0.53552707	-0.69225686	-0.11804706	-0.45251465
15	0.14000000	-0.93601774	-0.17537860	-0.00771366	-0.54881505	0.22608143	-0.71353661	-0.58422676	-0.52561012	-0.26829686	-0.74902871	-0.37650953	0.10392501	-0.68302101	0.44277066	0.14231320	-0.63519650	0.33658249	0.40846355	-0.54391711	-0.22429859	-0.54161012	-0.68850438	-0.12079352	-0.44210261
16	0.15000000	-0.94445661	-0.17328117	-0.01039318	-0.55517228	0.22250515	-0.71803973	-0.57803070	-0.52654068	-0.26801212	-0.75102290	-0.37996936	0.11026398	-0.69100640	0.44011695	0.14200103	-0.63948712	0.34297145	0.41131780	-0.53942820	-0.22036838	-0.54146643	-0.69232943	-0.12062915	-0.45209582
17	0.16000000	-0.93751237	-0.17313612	-0.01190661	-0.55449585	0.23095309	-0.71839084	-0.57961561	-0.53159983	-0.26772687	-0.74872010	-0.37584068	0.10725348	-0.68152263	0.43690120	0.13767200	-0.63405609	0.34095358	0.41323832	-0.54016957	-0.22260108	-0.54104432	-0.68598639	-0.11999145	-0.45579654
18	0.17000000	-0.93804959	-0.17130113	-0.00778617	-0.55334806	0.22784709	-0.72052980	-0.57445633	-0.52640839	-0.26851847	-0.74674153	-0.37847290	0.10233261	-0.68258593	0.44319209	0.13782515	-0.62880416	0.34539234	0.41361225	-0.54417470	-0.22260154	-0.53950255	-0.69090090	-0.11591612	-0.45522714
19	0.18000000	-0.93822141	-0.17595421	-0.00961740	-0.56146187	0.22434611	-0.72031855	-0.58414204	-0.53609872	-0.27192331	-0.74687164	-0.37770598	0.09913372	-0.68186779	0.43838182	0.13769689	-0.63478841	0.34264328	0.42008038	-0.54377407	-0.22535056	-0.54079845	-0.69075277	-0.11859094	-0.44598296
20	0.19000000	-0.94250552	-0.17489665	-0.00800366	-0.55673576	0.22853277	-0.71998081	-0.57488019	-0.52749998	-0.26531223	-0.74704952	-0.37424077	0.10812738	-0.68030341	0.44173408	0.13560373	-0.62854903	0.34082740	0.41477360	-0.54147945	-0.23032428	-0.53501611	-0.69499832	-0.11838841	-0.44517777
21	0.20000000	-0.94188356	-0.17218242	-0.01445381	-0.55447266	0.22650006	-0.71293233	-0.57194780	-0.53245819	-0.26830314	-0.74392662	-0.38060113	0.10484790	-0.68231373	0.44733805	0.13724488	-0.63507662	0.34349062	0.41103656	-0.53980611	-0.22216093	-0.54166695	-0.68719824	-0.11797722	-0.45113734
22	0.21000000	-0.93760012	-0.18425178	-0.01206281	-0.55106104	0.23048572	-0.71405141	-0.57815851	-0.53445479	-0.26972208	-0.74129900	-0.37966275	0.10398649	-0.68016287	0.44333821	0.13286573	-0.62764256	0.34462682	0.41595454	-0.54208563	-0.22706662	-0.54125059	-0.68476015	-0.11594724	-0.44666493
23	0.22000000	-0.94211027	-0.17925049	-0.01864014	-0.55742515	0.22583025	-0.71533489	-0.57515472	-0.53578973	-0.26809004	-0.75363154	-0.37600087	0.11210100	-0.68293379	0.44995506	0.13543346	-0.62675373	0.33894509	0.41492155	-0.54383131	-0.22591314	-0.54381052	-0.69489703	-0.11595904	-0.44898562
24	0.23000000	-0.93952774	-0.17989961	-0.01388638	-0.55706282	0.22421192	-0.71145121	-0.57141546	-0.53225437	-0.27423736	-0.74844946	-0.37813655	0.10481318	-0.68169384	0.44736035	0.13727370	-0.63042037	0.34780597	0.41137104	-0.54206589	-0.22055416	-0.54556314	-0.68620786	-0.11406773	-0.44672349
25	0.24000000	-0.93793381	-0.17927491	-0.01365011	-0.55872271	0.22656948	-0.71743800	-0.57108153	-0.53854102	-0.26738506	-0.74681707	-0.37597989	0.10594891	-0.67595914	0.44726294	0.13223349	-0.62134405	0.34497824	0.42030301	-0.54387226	-0.22718031	-0.54334168	-0.69310467	-0.11832417	-0.44930370
26	0.25000000	-0.93971585	-0.17562038	-0.00967779	-0.55250877	0.22873549	-0.70651394	-0.56958061	-0.53894217	-0.26958680	-0.74683986	-0.37832512	0.11231667	-0.68271337	0.44573555	0.12853448	-0.62466871	0.34517269	0.41744626	-0.54177590	-0.22856425	-0.54341373	-0.69088065	-0.11354346	-0.44830252
27	0.26000000	-0.93541413	-0.18000419	-0.01185366	-0.55519480	0.22797587	-0.71644668	-0.57321880	-0.54668987	-0.26515904	-0.74677949	-0.37816204	0.10729251	-0.68002377	0.45201897	0.12797814	-0.63127413	0.34562515	0.41786358	-0.54402915	-0.22660359	-0.54374733	-0.69484916	-0.11382469	-0.44226485
28	0.27000000	-0.93803266	-0.17946479	-0.01179808	-0.55729748	0.22202883	-0.71228633	-0.56863534	-0.54252456	-0.26689092	-0.74700040	-0.37807074	0.10789114	-0.67789365	0.44696955	0.12928798	-0.63235316	0.34912155	0.41744724	-0.54125410	-0.22891444	-0.54492423	-0.69110102	-0.11182558	-0.44953372
29	0.28000000	-0.94023719	-0.18027098	-0.01158497	-0.55841061	0.22413615	-0.70934783	-0.56689982	-0.54662635	-0.26060828	-0.74909035	-0.37860315	0.10713234	-0.67805732	0.44544930	0.14011130	-0.62388226	0.34262447	0.41578292	-0.53753480	-0.22837254	-0.53656830	-0.69966162	-0.11624140	-0.44846000
30	0.29000000	-0.94165371	-0.18600395	-0.00405358	-0.55060905	0.22213722	-0.71795775	-0.56705884	-0.54221742	-0.26772340	-0.74625283	-0.38206551	0.10082572	-0.68067112	0.44762872	0.13704811	-0.62867814	0.34311553	0.42001980	-0.53981558	-0.22919941	-0.53751216	-0.69511300	-0.11125425	-0.44139589
31	0.30000000	-0.93758071	-0.18178702	0.00177012	-0.55703050	0.22434030	-0.71303890	-0.56460006	-0.54241004	-0.26459664	-0.74294914	-0.37562466	0.10665996	-0.68194546	0.45041769	0.13475955	-0.62871362	0.34302141	0.41754831	-0.54168091	-0.23531867	-0.54155155	-0.69770339	-0.10992835	-0.44086399
32	0.31000000	-0.93718533	-0.18377496	0.00113322	-0.55244069	0.22380189	-0.71336364	-0.56319957	-0.54303071	-0.26047463	-0.74686303	-0.37592288	0.11413106	-0.67380192	0.45608849	0.13218665	-0.63280843	0.34290464	0.41773856	-0.54398060	-0.23684841	-0.54340914	-0.69753329	-0.11418232	-0.44838022
33	0.32000000	-0.93334661	-0.18212797	-0.00042376	-0.55523419	0.22258872	-0.71346139	-0.56713968	-0.55137306	-0.25791669	-0.74331262	-0.37395092	0.10492511	-0.67772798	0.44946481	0.13304596	-0.63080820	0.34054689	0.41784963	-0.54559272	-0.23675996	-0.54265980	-0.70014572	-0.11129907	-0.43505134
34	0.33000000	-0.93514328	-0.18595393	0.00685601	-0.55656090	0.22577566	-0.71826305	-0.56383822	-0.55303252	-0.25620550	-0.75145361	-0.37383174	0.10719223	-0.67138454	0.45201745	0.13473846	-0.63508449	0.33851031	0.42013053	-0.54355496	-0.23700996	-0.53680365	-0.70468703	-0.10728452	-0.44031845
35	0.34000000	-0.93128801	-0.18173171	0.01307373	-0.55044487	0.21524993	-0.71770933	-0.55887102	-0.55536651	-0.26002525	-0.74956027	-0.36934475	0.10015791	-0.67601630	0.45229437	0.13225034	-0.63246887	0.33582727	0.41955669	-0.54349339	-0.23901294	-0.54145606	-0.70671821	-0.10729586	-0.43719561
36	0.35000000	-0.93352599	-0.18404817	0.01708845	-0.55682683	0.21579570	-0.71771598	-0.56609060	-0.55950470	-0.25293532	-0.75576366	-0.36554139	0.10034935	-0.67148638	0.45898545	0.13002864	-0.63482209	0.32958625	0.41858993	-0.54371540	-0.23649904	-0.54076193	-0.70641592	-0.10514640	-0.43312729
37	0.36000000	-0.93620753	-0.18367791	0.01741539	-0.55162762	0.21389564	-0.71774316	-0.55279070	-0.55904561	-0.25372710	-0.75353465	-0.36585304	0.09775451	-0.67426905	0.46085407	0.12985256	-0.63426602	0.33255712	0.42698872	-0.54367312	-0.23489760	-0.53737193	-0.70200407	-0.10506794	-0.43067707
